<svg width="191" height="168" viewBox="0 0 191 168" fill="none" xmlns="http://www.w3.org/2000/svg">
<path d="M187.1 63C178.3 49 166.4 49.5 156.2 49.1C153 48.9 149.7 49.7 146.9 51.3C147.9 43.8 148.6 39 148.6 38.6C148.7 34.4 144.2 12.9 86.6 2.7C33.1 -6.8 19.1 10.8 15.3 17.5C14.7 18.5 -1.90002 116.5 0.0999777 130.9C1.59998 141.5 21.8 156.9 55.2 164.5C88.6 172.1 122.1 164.4 127.3 157.4C129.4 154.6 132.3 141.5 135.4 125.1C149.6 135.7 169.7 130.7 178.5 121.3C186.4 112.9 196 77 187.1 63ZM173.6 92C172.6 96.4 168.9 116.1 156 116.9C146 117.5 140.7 116.8 139.1 111.7L148.1 68.3C152.7 65.8 157.8 64.3 163.1 63.9C166.3 63.7 172.1 66 172.1 66C172.5 67.1 172.8 68.2 172.9 69.4C175 76.7 175.2 84.5 173.6 92Z" fill="white"/>
<path d="M172 66C172 66 177.8 67.3 179.9 71.1C180.3 71.8 181.4 73.9 180.6 75.1C180.2 75.6 179.6 75.9 178.9 75.9C175.7 76.1 173.2 70.3 172.8 69.4C172.3 68.3 172.1 67.2 172 66Z" fill="black"/>
<path d="M23.1 24.3C23.1 24.3 26.2 39.3 76.9 46.6C131.6 54.4 137.1 42.2 137.1 42.2C137.1 42.2 136.8 24 78.8 17C22.7 10.1 23.1 24.3 23.1 24.3Z" fill="#505050"/>
<path d="M55.7 30C60.5 34.6 61 34.1 66.1 35.3C71.2 36.5 81.5 34.5 77.1 29.2C72.7 23.9 62.1 22 57.3 21.6C52.5 21.2 42.2 20.8 41.4 25.3C40.6 29.8 50.4 24.9 55.7 30Z" fill="white"/>
<path d="M12.1 87.3C11.9 89.7 12.6 92.1 14 94.1L24.3 113C24.3 113 27.7 116.7 30.2 114.8C32.7 112.9 30.6 108.6 30.6 108.6L20.1 89.5L37.5 83.6C39.8 83 41.2 80.7 40.8 78.4C40.3 75.1 35.6 76 35.6 76L15.4 82.4C13.5 83.3 12.2 85.2 12.1 87.3Z" fill="#505050"/>
<path d="M85 114C85.1 111.5 84.3 109 82.7 107L67.9 86.8C67.9 86.8 65.3 83.9 62.3 85.8C59.3 87.7 62 92 62 92L76 111.7L54.2 116.8C54.2 116.8 49.9 117.5 50.8 121.8C51.5 125.1 56.8 124.5 56.8 124.5L81.4 118.7C83.4 118 84.9 116.1 85 114Z" fill="#505050"/>
</svg>
