<svg xmlns="http://www.w3.org/2000/svg" viewBox="0 0 190.66 167.62"><defs><style>.cls-1{fill:#fff;}</style></defs><g id="Layer_2" data-name="Layer 2"><g id="Layer_1-2" data-name="Layer 1"><path class="cls-1" d="M187.13,63c-8.83-14-20.69-13.51-30.86-13.86A17.1,17.1,0,0,0,147,51.36c1-7.48,1.66-12.3,1.67-12.71.1-4.17-4.43-25.72-62-35.91C33.12-6.72,19.13,10.82,15.35,17.5c-.56,1-17.25,99-15.17,113.38,1.53,10.57,21.67,26,55.13,33.6s66.85-.07,72.08-7.13c2.1-2.84,5-15.87,8.07-32.32,14.19,10.58,34.26,5.62,43.07-3.76C186.44,112.86,196,77,187.13,63ZM173.56,92c-1,4.36-4.73,24.1-17.61,24.92-10,.63-15.29-.07-16.88-5.19l9-43.43a37.56,37.56,0,0,1,15-4.36c3.22-.21,9,2.06,9,2.06a13.38,13.38,0,0,1,.78,3.38A46.24,46.24,0,0,1,173.56,92Z"/><path d="M172,66s5.78,1.3,7.87,5.11c.38.68,1.53,2.76.67,4a2.37,2.37,0,0,1-1.68.83c-3.16.2-5.69-5.63-6.08-6.54A9.94,9.94,0,0,1,172,66Z"/><path d="M23.15,24.26s3.06,15,53.82,22.25c54.66,7.81,60.23-4.44,60.23-4.44s-.28-18.23-58.26-25.19C22.74,10.13,23.15,24.26,23.15,24.26Z"/><path class="cls-1" d="M55.72,30c4.8,4.62,5.27,4.13,10.4,5.29s15.36-.77,11-6.08-15-7.18-19.81-7.65-15.13-.75-15.89,3.73S50.42,24.93,55.72,30Z"/><path d="M12.1,87.31A10.19,10.19,0,0,0,14,94.06l10.26,18.88s3.42,3.7,5.92,1.82.37-6.16.37-6.16L20.08,89.53l17.43-5.89a4.54,4.54,0,0,0,3.29-5.22C40.35,75.14,35.61,76,35.61,76L15.4,82.44A5.78,5.78,0,0,0,12.1,87.31Z"/><path d="M85,114a10.45,10.45,0,0,0-2.26-7L67.88,86.85s-2.57-2.86-5.58-1S62,92,62,92l14,19.74-21.76,5.12s-4.26.74-3.41,5c.65,3.31,6,2.68,6,2.68l24.57-5.85A5.34,5.34,0,0,0,85,114Z"/></g></g></svg>