<svg xmlns="http://www.w3.org/2000/svg" viewBox="0 0 304.62 340.24"><defs><style>.cls-1{fill:#fff;}</style></defs><g id="Layer_2" data-name="Layer 2"><g id="Layer_1-2" data-name="Layer 1"><path class="cls-1" d="M282,94.28c-2-27.93-14.18-45.07-28.78-57.79-24.09-21-57.17-27.43-80-31.92-12.37-2.43-64.1-6.27-94.31,8.14A142.18,142.18,0,0,0,53.72,28.53c-12.19,9.38-17,26.38-24.87,39.6C10.08,99.9-.54,133.74,11.33,160.33c6.37,14.27,15.91,29.08,23.41,42.27a43.49,43.49,0,0,0-17.38,1.82c-24.79,7.28-8.31,44-4,48.8s16.85,11.65,37,5.54A33,33,0,0,0,58.66,255c23.42,36.85,72.6,77.3,132.27,84.12,96.84,11.07,113.69-64.43,113.69-95.85C304.62,202.1,286.75,161.24,282,94.28Z"/><path d="M170.84,157.79c5.93,1.13,12,5.72,12.48,11.18s-2.34,14.56-12.48,14.56-14.3-7.28-13.78-14S165.75,156.82,170.84,157.79Z"/><path d="M258.13,145.33c6.68.6,12.41,5.71,12.41,11.42s-4,11.42-9.93,11.67-12.16-4-11.91-11.55S255.36,145.09,258.13,145.33Z"/><path d="M158.77,246.43c13.37-11.88,33.82,4.46,62.95,4.46,34.2,0,44.33-18.8,62.34-4.07,8.71,7.11,2.41,30.82-9.89,44.86-9.38,10.7-14.87,19.73-44.18,24.11C175.17,324,126.39,275.22,158.77,246.43Z"/><path d="M190.37,191.5a2.25,2.25,0,0,0-2.19-1.93,3.55,3.55,0,0,0-3.65,2.84s-.94,6.61-7.06,9.06c-4.73,1.89-7.16,2.09-9.52,2.12,0,0-2.64-.1-2.21,2.88a2.06,2.06,0,0,0,.85,1.64c1.69.94,3,.94,5.39.91a17.11,17.11,0,0,0,11.36-4C187.88,201.51,190.73,193.45,190.37,191.5Z"/><path d="M253.82,180a2.89,2.89,0,0,1,3.7-.07,20.51,20.51,0,0,0,6.67,4.51,17.71,17.71,0,0,0,9.37,1.52c1.13-.05,3.14.38,3.14,2.5,0,1.72-3.2,2.16-4,2.21a23.34,23.34,0,0,1-11.5-1.9c-4.82-2.14-6.7-4.51-7.31-5.31A3.12,3.12,0,0,1,253.82,180Z"/><path d="M228.28,181.52c4.45,4.64,13.27,14.76,18.79,19.25s12.86,7.11,12.86,18.42c0,8.76-7.92,14.89-21.06,13.73-10.79-.95-11.8-2.39-12.39-3.26-2.17-3.19,1.9-4.56,3.19-4.34,3,.52,3,.76,9.07,1.71s12.73.68,14.52-5.75c1.55-5.57-.5-8.77-9.81-16.22-8.3-6.63-18.7-19.62-18.7-19.62s-6.76-8-3.49-8.88C223.05,176.09,226.81,180,228.28,181.52Z"/><path d="M248.08,125.48c4.72-.38,7.6-1.77,24.1.82,7.1,1.11,13.89,5.47,13.89,5.47s4,.5,3.72-6.6c-.18-4.19-5.51-7.08-5.51-7.08a48,48,0,0,0-6.6-3.39c-12-4.47-20.89-5.93-26-5.43-8.85.86-12.14,1.78-13.41,3.88-1,1.64,0,9.19,1.46,11C242,126.85,244.15,125.8,248.08,125.48Z"/><path d="M181,122.9c4.81.3,3.39-2.44,2.45-3.43-1.79-1.9-4-2.24-8.63-2.55-7.16-.49-15,1-28.33,5.61s-28,15-30,19c-1.29,2.56,1.49,5.8,3.77,7.57,2.55,2,8.28-1,11.77-2.93,9.29-5.1,36.86-12.3,43.36-13.33,4.9-.79,11.45-1.6,11.44-2.67-.07-4.79-6.65-2.78-9.38-3.12C174.56,126.66,173.27,122.42,181,122.9Z"/><path d="M112.35,148.17c2.09,2.53,3.41,3.66,3.62,5.11s-2.38,3.08-4.06,1.46-4.86-5.37-3.67-7.07C109.91,145.29,111.75,147.45,112.35,148.17Z"/><path d="M58.2,255.35s4.89-1.81,7.22-5.87,2.84-.4,2.74.81,1.29,7.44-4.89,12.51C60.75,259.27,58.2,255.35,58.2,255.35Z"/><path class="cls-1" d="M210.13,307.58c14.29,1.37,33.58-2.63,33.58-7.48,0-9.07-19.88-22-40.26-22.49-16.8-.41-22.82,13.69-23,15.12C179.59,299.93,190.83,305.73,210.13,307.58Z"/><path d="M264,45.12c-10.81-12.38-29.36-29.43-75.85-38.45-43-8.34-77.42-10.73-115.35,3.92C59.3,15.8,44,26.05,36.68,34.92,27.27,46.29,26,58.46,29,73.39c-15.08.37-21.7,9.42-26.46,26.26C-8.7,139.41,21.66,183,25.44,189c1.46,2.32,8.63,5,8.63,5s33.22,4.18,34-12.82c.64-13.87-23.3-17.6-23.3-17.6s20,2.62,24.48-8.17c12.29-29.81-18.18-43.68-18.18-43.68s30.34,23.28,52.31,5.63c6.54-8.63-6.67-18.83-6.67-18.83s59.11,15.17,93,6.27c23.41-6.14,22-21.18,6.67-22.75,9.27,11,50.59,17.77,65.52,18,21.18.4,34.13-8.23,34.13-8.23C294.71,78.2,276.54,59.5,264,45.12ZM183.22,82.23Z"/><path d="M93.39,243s-9.77,2.78-13.16,11A22.84,22.84,0,0,0,81,272.46Z"/><path d="M104.93,253.39l-8.18,31.24s10.64-2.22,12.17-13.41S104.93,253.39,104.93,253.39Z"/><path class="cls-1" d="M46.39,56.68s11.36-21.09,30-25.89,30-3,30-3Z"/><path class="cls-1" d="M37.33,84.5s5.7-3.8,16.88-2.27S68.2,92,68.2,92s-8.77,4-17.47,2.6S37.33,84.5,37.33,84.5Z"/><path class="cls-1" d="M23.66,98.24a36.56,36.56,0,0,0-5.54,25.69c2.36,15.07,14.25,22.85,14.25,22.85Z"/><path class="cls-1" d="M226.25,44.28s13.3-3.52,22.49,3.58a24.35,24.35,0,0,1,9.42,17.33S247.57,59.83,226.25,44.28Z"/><path d="M14.32,216.57c-6.75,7.36,1.57,23.15,1.57,23.15l18.44-27.27S21.78,208.44,14.32,216.57Z"/><path d="M25,188.13s12.86,23.71,25,25.11c12,1.37,19.82-5.69,15.5-12.36S48.74,190.87,25,188.13Z"/><path d="M29.67,74.56s-7.16,3.3-18.37-2.16S0,41.19,0,41.19s14.85,7.63,22.92,16S29.67,74.56,29.67,74.56Z"/><path d="M267.34,49.38s13.1,15.49,31.89,10c4.92-1,5.62,3.5,3.23,5.74S294.06,73,283,70.68C277.81,69.6,267.34,49.38,267.34,49.38Z"/></g></g></svg>