<svg width="305" height="341" viewBox="0 0 305 341" fill="none" xmlns="http://www.w3.org/2000/svg">
<path d="M282 94.28C280 66.35 267.82 49.21 253.22 36.49C229.13 15.49 196.05 9.05999 173.22 4.56999C160.85 2.13999 109.12 -1.70001 78.91 12.71C69.9833 17.0881 61.5404 22.3904 53.72 28.53C41.53 37.91 36.72 54.91 28.85 68.13C10.08 99.9 -0.540007 133.74 11.33 160.33C17.7 174.6 27.24 189.41 34.74 202.6C28.8832 202.024 22.9705 202.644 17.36 204.42C-7.43001 211.7 9.04999 248.42 13.36 253.22C17.67 258.02 30.21 264.87 50.36 258.76C53.2872 257.896 56.0805 256.631 58.66 255C82.08 291.85 131.26 332.3 190.93 339.12C287.77 350.19 304.62 274.69 304.62 243.27C304.62 202.1 286.75 161.24 282 94.28Z" fill="white"/>
<path d="M170.84 157.79C176.77 158.92 182.84 163.51 183.32 168.97C183.8 174.43 180.98 183.53 170.84 183.53C160.7 183.53 156.54 176.25 157.06 169.53C157.58 162.81 165.75 156.82 170.84 157.79Z" fill="#505050"/>
<path d="M258.13 145.33C264.81 145.93 270.54 151.04 270.54 156.75C270.54 162.46 266.54 168.17 260.61 168.42C254.68 168.67 248.45 164.42 248.7 156.87C248.95 149.32 255.36 145.09 258.13 145.33Z" fill="#505050"/>
<path d="M158.77 246.43C172.14 234.55 192.59 250.89 221.72 250.89C255.92 250.89 266.05 232.09 284.06 246.82C292.77 253.93 286.47 277.64 274.17 291.68C264.79 302.38 259.3 311.41 229.99 315.79C175.17 324 126.39 275.22 158.77 246.43Z" fill="#505050"/>
<path d="M190.37 191.5C190.294 190.97 190.032 190.485 189.63 190.132C189.229 189.778 188.715 189.579 188.18 189.57C187.333 189.529 186.499 189.793 185.829 190.314C185.16 190.835 184.699 191.579 184.53 192.41C184.53 192.41 183.59 199.02 177.47 201.47C172.74 203.36 170.31 203.56 167.95 203.59C167.95 203.59 165.31 203.49 165.74 206.47C165.744 206.791 165.823 207.106 165.971 207.391C166.118 207.675 166.33 207.922 166.59 208.11C168.28 209.05 169.59 209.05 171.98 209.02C176.126 209.107 180.163 207.686 183.34 205.02C187.88 201.51 190.73 193.45 190.37 191.5Z" fill="#505050"/>
<path d="M253.82 180C254.331 179.557 254.981 179.308 255.657 179.295C256.333 179.282 256.993 179.507 257.52 179.93C259.424 181.859 261.691 183.392 264.19 184.44C267.117 185.79 270.357 186.315 273.56 185.96C274.69 185.91 276.7 186.34 276.7 188.46C276.7 190.18 273.5 190.62 272.7 190.67C268.768 191.019 264.811 190.366 261.2 188.77C256.38 186.63 254.5 184.26 253.89 183.46C253.538 182.955 253.344 182.356 253.331 181.741C253.319 181.125 253.489 180.519 253.82 180Z" fill="#505050"/>
<path d="M228.28 181.52C232.73 186.16 241.55 196.28 247.07 200.77C252.59 205.26 259.93 207.88 259.93 219.19C259.93 227.95 252.01 234.08 238.87 232.92C228.08 231.97 227.07 230.53 226.48 229.66C224.31 226.47 228.38 225.1 229.67 225.32C232.67 225.84 232.67 226.08 238.74 227.03C244.81 227.98 251.47 227.71 253.26 221.28C254.81 215.71 252.76 212.51 243.45 205.06C235.15 198.43 224.75 185.44 224.75 185.44C224.75 185.44 217.99 177.44 221.26 176.56C223.05 176.09 226.81 180 228.28 181.52Z" fill="#505050"/>
<path d="M248.08 125.48C252.8 125.1 255.68 123.71 272.18 126.3C279.28 127.41 286.07 131.77 286.07 131.77C286.07 131.77 290.07 132.27 289.79 125.17C289.61 120.98 284.28 118.09 284.28 118.09C282.171 116.791 279.964 115.658 277.68 114.7C265.68 110.23 256.79 108.77 251.68 109.27C242.83 110.13 239.54 111.05 238.27 113.15C237.27 114.79 238.27 122.34 239.73 124.15C242 126.85 244.15 125.8 248.08 125.48Z" fill="#505050"/>
<path d="M181 122.9C185.81 123.2 184.39 120.46 183.45 119.47C181.66 117.57 179.45 117.23 174.82 116.92C167.66 116.43 159.82 117.92 146.49 122.53C133.16 127.14 118.49 137.53 116.49 141.53C115.2 144.09 117.98 147.33 120.26 149.1C122.81 151.1 128.54 148.1 132.03 146.17C141.32 141.07 168.89 133.87 175.39 132.84C180.29 132.05 186.84 131.24 186.83 130.17C186.76 125.38 180.18 127.39 177.45 127.05C174.56 126.66 173.27 122.42 181 122.9Z" fill="#505050"/>
<path d="M112.35 148.17C114.44 150.7 115.76 151.83 115.97 153.28C116.18 154.73 113.59 156.36 111.91 154.74C110.23 153.12 107.05 149.37 108.24 147.67C109.91 145.29 111.75 147.45 112.35 148.17Z" fill="black"/>
<path d="M58.2 255.35C58.2 255.35 63.09 253.54 65.42 249.48C67.75 245.42 68.26 249.08 68.16 250.29C68.06 251.5 69.45 257.73 63.27 262.8C60.75 259.27 58.2 255.35 58.2 255.35Z" fill="black"/>
<path d="M210.13 307.58C224.42 308.95 243.71 304.95 243.71 300.1C243.71 291.03 223.83 278.1 203.45 277.61C186.65 277.2 180.63 291.3 180.45 292.73C179.59 299.93 190.83 305.73 210.13 307.58Z" fill="white"/>
<path d="M264 45.12C253.19 32.74 234.64 15.69 188.15 6.66999C145.15 -1.67001 110.73 -4.06001 72.8 10.59C59.3 15.8 44 26.05 36.68 34.92C27.27 46.29 26 58.46 29 73.39C13.92 73.76 7.30001 82.81 2.54001 99.65C-8.69999 139.41 21.66 183 25.44 189C26.9 191.32 34.07 194 34.07 194C34.07 194 67.29 198.18 68.07 181.18C68.71 167.31 44.77 163.58 44.77 163.58C44.77 163.58 64.77 166.2 69.25 155.41C81.54 125.6 51.07 111.73 51.07 111.73C51.07 111.73 81.41 135.01 103.38 117.36C109.92 108.73 96.71 98.53 96.71 98.53C96.71 98.53 155.82 113.7 189.71 104.8C213.12 98.66 211.71 83.62 196.38 82.05C205.65 93.05 246.97 99.82 261.9 100.05C283.08 100.45 296.03 91.82 296.03 91.82C294.71 78.2 276.54 59.5 264 45.12Z" fill="#505050"/>
<path d="M93.39 243C93.39 243 83.62 245.78 80.23 254C79.0655 256.961 78.5325 260.132 78.6651 263.311C78.7977 266.49 79.593 269.606 81 272.46L93.39 243Z" fill="#505050"/>
<path d="M104.93 253.39L96.75 284.63C96.75 284.63 107.39 282.41 108.92 271.22C110.45 260.03 104.93 253.39 104.93 253.39Z" fill="#505050"/>
<path d="M46.39 56.68C46.39 56.68 57.75 35.59 76.39 30.79C95.03 25.99 106.39 27.79 106.39 27.79L46.39 56.68Z" fill="white"/>
<path d="M37.33 84.5C37.33 84.5 43.03 80.7 54.21 82.23C65.39 83.76 68.2 92 68.2 92C68.2 92 59.43 96 50.73 94.6C42.03 93.2 37.33 84.5 37.33 84.5Z" fill="white"/>
<path d="M23.66 98.24C18.693 105.821 16.7186 114.976 18.12 123.93C20.48 139 32.37 146.78 32.37 146.78L23.66 98.24Z" fill="white"/>
<path d="M226.25 44.28C226.25 44.28 239.55 40.76 248.74 47.86C251.432 49.9317 253.661 52.5439 255.283 55.5285C256.906 58.513 257.886 61.8041 258.16 65.19C258.16 65.19 247.57 59.83 226.25 44.28Z" fill="white"/>
<path d="M14.32 216.57C7.56999 223.93 15.89 239.72 15.89 239.72L34.33 212.45C34.33 212.45 21.78 208.44 14.32 216.57Z" fill="#505050"/>
<path d="M25 188.13C25 188.13 37.86 211.84 50 213.24C62 214.61 69.82 207.55 65.5 200.88C61.18 194.21 48.74 190.87 25 188.13Z" fill="#505050"/>
<path d="M29.67 74.56C29.67 74.56 22.51 77.86 11.3 72.4C0.0900002 66.94 0 41.19 0 41.19C0 41.19 14.85 48.82 22.92 57.19C30.99 65.56 29.67 74.56 29.67 74.56Z" fill="#505050"/>
<path d="M267.34 49.38C267.34 49.38 280.44 64.87 299.23 59.38C304.15 58.38 304.85 62.88 302.46 65.12C300.07 67.36 294.06 73 283 70.68C277.81 69.6 267.34 49.38 267.34 49.38Z" fill="#505050"/>
</svg>
